#!OML:ASF H:\Dans Jumps\Project 1\Capture day 1\Session 1\subject.ASF
:FULLY-SPECIFIED
:DEGREES
68
root 0.579254 17.2764 -14.9248 10.4487 -1.50925 -1.56111
lowerback 4.09605 -0.690757 -0.259787
upperback 5.95232 -0.978637 1.8488
thorax 3.8812 -0.545491 2.06003
lowerneck -13.8392 1.20474 -1.41783
upperneck 27.5638 2.15724 -0.327649
head 11.2028 0.778346 0.414014
rclavicle 1.6201e-014 -1.33186e-014
rhumerus -26.5729 -15.6289 -75.6587
rradius 26.9801
rwrist 31.0152
rhand -17.2945 -25.5563
rfingers 7.12502
rthumb 8.95118 -55.3464
lclavicle 1.6201e-014 -1.33186e-014
lhumerus -24.0865 -3.0214 84.9968
lradius 23.3753
lwrist 10.2188
lhand -24.8042 -1.22501
lfingers 7.12502
lthumb 1.70069 28.748
rfemur -28.1326 -2.1264 19.5771
rtibia 33.4104
rfoot -14.7836 -4.54152
rtoes 7.55843
lfemur -28.0368 9.18763 -19.8248
ltibia 32.4552
lfoot -13.2836 4.70111
ltoes 3.17538
69
root 0.579352 17.266 -14.9381 10.5259 -1.51069 -1.5989
lowerback 4.20513 -0.681022 -0.239752
upperback 5.98286 -0.965368 1.86397
thorax 3.85137 -0.538488 2.06568
lowerneck -13.8627 1.21085 -1.3952
upperneck 27.4324 2.16436 -0.348162
head 11.158 0.782931 0.403078
rclavicle -1.58034e-014 -6.16232e-015
rhumerus -27.0067 -15.7075 -75.3994
rradius 26.9881
rwrist 31.038
rhand -17.287 -25.5557
rfingers 7.12502
rthumb 8.95839 -55.3455
lclavicle -1.58034e-014 -6.16232e-015
lhumerus -24.5268 -2.94547 84.9436
lradius 23.348
lwrist 10.3202
lhand -24.8972 -1.30653
lfingers 7.12502
lthumb 1.61082 28.6671
rfemur -28.4006 -2.1055 19.6238
rtibia 33.6576
rfoot -14.8756 -4.56212
rtoes 7.48969
lfemur -28.3402 9.19117 -19.8057
ltibia 32.7675
lfoot -13.3747 4.74305
ltoes 3.14732
70
root 0.579458 17.2554 -14.951 10.6066 -1.51235 -1.63517
lowerback 4.30792 -0.672903 -0.219852
upperback 6.01702 -0.954254 1.87688
thorax 3.82894 -0.532571 2.06897
lowerneck -13.8928 1.2185 -1.36956
upperneck 27.2934 2.17362 -0.371359
head 11.1119 0.788505 0.390977
rclavicle -1.2424e-014 4.17448e-015
rhumerus -27.4275 -15.8175 -75.1401
rradius 26.9785
rwrist 31.0833
rhand -17.2732 -25.5852
rfingers 7.12502
rthumb 8.9717 -55.3745
lclavicle -1.2424e-014 4.17448e-015
lhumerus -24.9612 -2.85416 84.8807
lradius 23.2812
lwrist 10.3512
lhand -25.0137 -1.5477
lfingers 7.12502
lthumb 1.49829 28.4268
rfemur -28.6724 -2.08262 19.6682
rtibia 33.9084
rfoot -14.9743 -4.58449
rtoes 7.41481
lfemur -28.6468 9.19105 -19.7882
ltibia 33.0808
lfoot -13.4654 4.79258
ltoes 3.10231
71
root 0.579635 17.2445 -14.9637 10.6891 -1.51827 -1.67169
lowerback 4.41058 -0.66516 -0.200072
upperback 6.05261 -0.943615 1.88923
thorax 3.80811 -0.526903 2.07171
lowerneck -13.9263 1.22247 -1.34666
upperneck 27.1464 2.17858 -0.395711
head 11.0636 0.791781 0.378357
rclavicle 6.55989e-015 -1.03368e-014
rhumerus -27.844 -15.942 -74.8785
rradius 26.9603
rwrist 31.1352
rhand -17.2534 -25.6147
rfingers 7.12502
rthumb 8.9908 -55.4031
lclavicle 6.55989e-015 -1.03368e-014
lhumerus -25.3976 -2.73447 84.8081
lradius 23.194
lwrist 10.3233
lhand -25.1497 -1.89895
lfingers 7.12502
lthumb 1.36696 28.0764
rfemur -28.9484 -2.0575 19.7125
rtibia 34.1623
rfoot -15.0785 -4.60943
rtoes 7.31521
lfemur -28.9555 9.1894 -19.7703
ltibia 33.3954
lfoot -13.556 4.85308
ltoes 3.05152
72
root 0.57989 17.2334 -14.9761 10.7741 -1.53032 -1.70707
lowerback 4.51052 -0.655273 -0.179773
upperback 6.09017 -0.930055 1.8985
thorax 3.79072 -0.519711 2.0709
lowerneck -13.9587 1.22089 -1.32931
upperneck 26.9908 2.17502 -0.413446
head 11.0118 0.791548 0.36791
rclavicle 1.00386e-014 -3.29983e-014
rhumerus -28.2587 -16.0884 -74.6175
rradius 26.9408
rwrist 31.1891
rhand -17.2247 -25.6663
rfingers 7.12502
rthumb 9.01856 -55.4535
lclavicle 1.00386e-014 -3.29983e-014
lhumerus -25.8246 -2.5956 84.7242
lradius 23.0778
lwrist 10.2441
lhand -25.182 -2.10346
lfingers 7.12502
lthumb 1.33581 27.8721
rfemur -29.2286 -2.02846 19.7544
rtibia 34.4202
rfoot -15.1925 -4.63163
rtoes 7.21353
lfemur -29.2665 9.18504 -19.7534
ltibia 33.7129
lfoot -13.649 4.93026
ltoes 2.99135
73
root 0.580211 17.222 -14.9883 10.8566 -1.5497 -1.74521
lowerback 4.61703 -0.643527 -0.157838
upperback 6.12668 -0.91388 1.90762
thorax 3.76845 -0.511118 2.06903
lowerneck -13.9805 1.2176 -1.31836
upperneck 26.8293 2.16947 -0.427984
head 10.9557 0.790256 0.359346
rclavicle 6.95746e-016 -8.54774e-015
rhumerus -28.6847 -16.2333 -74.3552
rradius 26.9284
rwrist 31.2316
rhand -17.1953 -25.715
rfingers 7.12502
rthumb 9.04692 -55.501
lclavicle 6.95746e-016 -8.54774e-015
lhumerus -26.2513 -2.42712 84.6316
lradius 22.9433
lwrist 10.1532
lhand -25.2658 -2.45695
lfingers 7.12502
lthumb 1.25489 27.5191
rfemur -29.5078 -1.99472 19.7984
rtibia 34.6808
rfoot -15.3242 -4.65332
rtoes 7.08316
lfemur -29.5745 9.18219 -19.7328
ltibia 34.0347
lfoot -13.7496 5.0268
ltoes 2.90876
74
root 0.580561 17.2101 -15.0009 10.9483 -1.58039 -1.79022
lowerback 4.72385 -0.62663 -0.130239
upperback 6.157 -0.890599 1.91635
thorax 3.73916 -0.498669 2.06346
lowerneck -14.0009 1.21451 -1.30352
upperneck 26.6746 2.16376 -0.444287
head 10.9022 0.788986 0.349513
rclavicle -7.35503e-015 -1.96797e-014
rhumerus -29.1222 -16.3942 -74.0898
rradius 26.9176
rwrist 31.2765
rhand -17.1613 -25.7703
rfingers 7.12502
rthumb 9.07971 -55.5549
lclavicle -7.35503e-015 -1.96797e-014
lhumerus -26.6744 -2.24858 84.5355
lradius 22.7929
lwrist 10.0673
lhand -25.293 -2.68425
lfingers 7.12502
lthumb 1.22859 27.292
rfemur -29.8017 -1.95229 19.8492
rtibia 34.9445
rfoot -15.4767 -4.67927
rtoes 6.89532
lfemur -29.8964 9.18354 -19.7069
ltibia 34.3622
lfoot -13.856 5.15558
ltoes 2.77487
75
root 0.580897 17.198 -15.0128 11.0345 -1.6197 -1.84161
lowerback 4.83404 -0.607081 -0.0981592
upperback 6.18804 -0.863642 1.92523
thorax 3.70857 -0.484213 2.05547
lowerneck -14.0189 1.21527 -1.2856
upperneck 26.5292 2.16349 -0.463155
head 10.8518 0.790058 0.339005
rclavicle -1.70955e-014 2.26615e-014
rhumerus -29.5696 -16.5485 -73.8273
rradius 26.9122
rwrist 31.3058
rhand -17.1506 -25.8146
rfingers 7.12502
rthumb 9.09002 -55.5988
lclavicle -1.70955e-014 2.26615e-014
lhumerus -27.0986 -2.04812 84.4338
lradius 22.6408
lwrist 9.98606
lhand -25.3 -2.79139
lfingers 7.12502
lthumb 1.2218 27.1849
rfemur -30.088 -1.90362 19.9062
rtibia 35.2107
rfoot -15.6636 -4.71189
rtoes 6.63252
lfemur -30.2099 9.19068 -19.673
ltibia 34.6954
lfoot -13.9787 5.33071
ltoes 2.54856
76
root 0.581246 17.1857 -15.0242 11.1191 -1.66291 -1.89717
lowerback 4.94083 -0.586709 -0.0631803
upperback 6.22308 -0.835596 1.93467
thorax 3.68407 -0.469166 2.0463
lowerneck -14.0383 1.21974 -1.2715
upperneck 26.3857 2.16816 -0.477334
head 10.8024 0.793511 0.331532
rclavicle 3.37934e-015 4.57205e-015
rhumerus -30.01 -16.7157 -73.5668
rradius 26.9016
rwrist 31.35
rhand -17.1321 -25.8802
rfingers 7.12502
rthumb 9.10784 -55.6636
lclavicle 3.37934e-015 4.57205e-015
lhumerus -27.507 -1.83649 84.3288
lradius 22.4768
lwrist 9.90608
lhand -25.3423 -2.87676
lfingers 7.12502
lthumb 1.18096 27.0997
rfemur -30.3697 -1.85316 19.9672
rtibia 35.4804
rfoot -15.8859 -4.75157
rtoes 6.32705
lfemur -30.5188 9.19747 -19.6331
ltibia 35.0341
lfoot -14.1226 5.55717
ltoes 2.20866
77
root 0.581558 17.1733 -15.0348 11.1975 -1.70451 -1.95145
lowerback 5.04862 -0.567206 -0.0296746
upperback 6.25927 -0.808667 1.94366
thorax 3.66032 -0.454736 2.03745
lowerneck -14.0617 1.22799 -1.2524
upperneck 26.2568 2.17812 -0.495015
head 10.7594 0.799234 0.322773
rclavicle 8.15017e-015 -6.95746e-015
rhumerus -30.4536 -16.8793 -73.3069
rradius 26.8895
rwrist 31.3864
rhand -17.1172 -25.9257
rfingers 7.12502
rthumb 9.12222 -55.7084
lclavicle 8.15017e-015 -6.95746e-015
lhumerus -27.9181 -1.60978 84.2228
lradius 22.3184
lwrist 9.83519
lhand -25.3883 -2.87203
lfingers 7.12502
lthumb 1.13656 27.1047
rfemur -30.6396 -1.80518 20.0265
rtibia 35.7535
rfoot -16.1478 -4.80093
rtoes 5.98421
lfemur -30.8156 9.19998 -19.5914
ltibia 35.3762
lfoot -14.3 5.83454
ltoes 1.73738
78
root 0.581796 17.1609 -15.0443 11.2692 -1.74167 -2.00349
lowerback 5.15706 -0.5504 0.00235256
upperback 6.29709 -0.785278 1.95151
thorax 3.6381 -0.442121 2.02825
lowerneck -14.0917 1.23896 -1.22877
upperneck 26.1417 2.19173 -0.515118
head 10.7231 0.806553 0.312997
rclavicle 8.24956e-015 -1.0138e-014
rhumerus -30.8941 -17.0418 -73.0499
rradius 26.8693
rwrist 31.4282
rhand -17.0994 -25.9698
rfingers 7.12502
rthumb 9.13946 -55.7518
lclavicle 8.24956e-015 -1.0138e-014
lhumerus -28.3308 -1.36611 84.1103
lradius 22.1531
lwrist 9.74006
lhand -25.4237 -2.84721
lfingers 7.12502
lthumb 1.10239 27.1297
rfemur -30.8962 -1.75989 20.0829
rtibia 36.0319
rfoot -16.4475 -4.86165
rtoes 5.63289
lfemur -31.097 9.19336 -19.5472
ltibia 35.72
lfoot -14.5164 6.15971
ltoes 1.13714
79
root 0.582007 17.1484 -15.0529 11.3412 -1.77529 -2.0503
lowerback 5.25864 -0.537108 0.028102
upperback 6.33572 -0.766732 1.95875
thorax 3.6209 -0.43219 2.02193
lowerneck -14.1175 1.25089 -1.21021
upperneck 26.0264 2.20645 -0.530239
head 10.6858 0.814486 0.305989
rclavicle -3.97569e-015 1.0138e-014
rhumerus -31.3226 -17.1996 -72.7988
rradius 26.8433
rwrist 31.4715
rhand -17.0486 -26.0399
rfingers 7.12502
rthumb 9.18847 -55.8197
lclavicle -3.97569e-015 1.0138e-014
lhumerus -28.7415 -1.11871 83.9959
lradius 21.9802
lwrist 9.62501
lhand -25.4368 -2.80912
lfingers 7.12502
lthumb 1.08969 27.1678
rfemur -31.1498 -1.71945 20.1338
rtibia 36.3164
rfoot -16.769 -4.93441
rtoes 5.27592
lfemur -31.3706 9.17526 -19.5051
ltibia 36.0638
lfoot -14.7667 6.52917
ltoes 0.432212
